<?xml version="1.0" encoding="UTF-8" standalone="no"?>
<svg
   version="1.1"
   viewBox="0.00 0.00 73.00 73.00"
   id="svg14"
   sodipodi:docname="资质规则.svg"
   inkscape:version="1.2.2 (732a01da63, 2022-12-09)"
   xmlns:inkscape="http://www.inkscape.org/namespaces/inkscape"
   xmlns:sodipodi="http://sodipodi.sourceforge.net/DTD/sodipodi-0.dtd"
   xmlns="http://www.w3.org/2000/svg"
   xmlns:svg="http://www.w3.org/2000/svg">
  <defs
     id="defs18" />
  <sodipodi:namedview
     id="namedview16"
     pagecolor="#ffffff"
     bordercolor="#000000"
     borderopacity="0.25"
     inkscape:showpageshadow="2"
     inkscape:pageopacity="0.0"
     inkscape:pagecheckerboard="0"
     inkscape:deskcolor="#d1d1d1"
     showgrid="false"
     inkscape:zoom="14.068493"
     inkscape:cx="35.149464"
     inkscape:cy="36.46446"
     inkscape:window-width="3840"
     inkscape:window-height="2054"
     inkscape:window-x="-11"
     inkscape:window-y="-11"
     inkscape:window-maximized="1"
     inkscape:current-layer="svg14" />
  <g
     stroke-width="2.00"
     fill="none"
     stroke-linecap="butt"
     id="g6">
    <path
       stroke="#91bfe3"
       vector-effect="non-scaling-stroke"
       d="   M 40.81 73.00   Q 52.90 65.45 59.38 59.11   C 69.18 49.54 69.70 36.86 69.27 22.23   C 69.13 17.22 67.90 15.63 63.46 13.86   Q 55.69 10.76 47.86 7.83   C 42.52 5.84 37.71 5.11 32.76 7.06   Q 25.92 9.74 19.08 12.38   C 13.28 14.62 9.66 15.46 9.31 21.73   C 8.49 36.54 9.51 50.31 20.92 60.72   C 25.24 64.66 32.16 69.48 37.93 73.00"
       id="path2" />
    <path
       stroke="#85b8e0"
       vector-effect="non-scaling-stroke"
       d="   M 33.99 39.13   C 31.99 37.06 29.55 33.91 26.85 33.34   C 23.89 32.73 21.36 34.85 20.99 37.79   C 20.60 40.96 25.95 45.49 29.69 48.98   C 32.37 51.48 34.85 52.88 37.86 50.10   Q 41.94 46.33 53.79 34.11   C 59.38 28.35 52.07 22.03 47.72 26.22   Q 41.10 32.60 34.68 39.13   A 0.48 0.47 -44.6 0 1 33.99 39.13"
       id="path4" />
  </g>
  <path
     fill="#237fc6"
     d="   M 40.81 73.00   L 37.93 73.00   C 32.16 69.48 25.24 64.66 20.92 60.72   C 9.51 50.31 8.49 36.54 9.31 21.73   C 9.66 15.46 13.28 14.62 19.08 12.38   Q 25.92 9.74 32.76 7.06   C 37.71 5.11 42.52 5.84 47.86 7.83   Q 55.69 10.76 63.46 13.86   C 67.90 15.63 69.13 17.22 69.27 22.23   C 69.70 36.86 69.18 49.54 59.38 59.11   Q 52.90 65.45 40.81 73.00   Z   M 33.99 39.13   C 31.99 37.06 29.55 33.91 26.85 33.34   C 23.89 32.73 21.36 34.85 20.99 37.79   C 20.60 40.96 25.95 45.49 29.69 48.98   C 32.37 51.48 34.85 52.88 37.86 50.10   Q 41.94 46.33 53.79 34.11   C 59.38 28.35 52.07 22.03 47.72 26.22   Q 41.10 32.60 34.68 39.13   A 0.48 0.47 -44.6 0 1 33.99 39.13   Z"
     id="path10" />
  <path
     fill="#e6f1f9"
     d="   M 33.99 39.13   A 0.48 0.47 -44.6 0 0 34.68 39.13   Q 41.10 32.60 47.72 26.22   C 52.07 22.03 59.38 28.35 53.79 34.11   Q 41.94 46.33 37.86 50.10   C 34.85 52.88 32.37 51.48 29.69 48.98   C 25.95 45.49 20.60 40.96 20.99 37.79   C 21.36 34.85 23.89 32.73 26.85 33.34   C 29.55 33.91 31.99 37.06 33.99 39.13   Z"
     id="path12" />
</svg>
